<?xml version="1.0" standalone="no"?>
<!DOCTYPE svg PUBLIC "-//W3C//DTD SVG 20010904//EN"
 "http://www.w3.org/TR/2001/REC-SVG-20010904/DTD/svg10.dtd">
<svg version="1.0" xmlns="http://www.w3.org/2000/svg"
 width="698.000000pt" height="300.000000pt" viewBox="0 0 698.000000 300.000000"
 preserveAspectRatio="xMidYMid meet">

<g transform="translate(0.000000,300.000000) scale(0.100000,-0.100000)"
fill="#000000" stroke="none">
<path d="M0 1500 l0 -1500 3490 0 3490 0 0 1500 0 1500 -3490 0 -3490 0 0
-1500z m5599 1266 c8 -9 8 -16 2 -20 -6 -4 -8 -13 -4 -21 3 -8 0 -15 -6 -15
-6 0 -11 6 -12 13 0 10 -2 10 -6 0 -10 -25 -23 -12 -23 22 0 28 4 35 19 35 10
0 24 -6 30 -14z m-549 -16 c0 -5 -2 -10 -4 -10 -3 0 -8 5 -11 10 -3 6 -1 10 4
10 6 0 11 -4 11 -10z m737 -7 c3 -8 -1 -22 -10 -30 -13 -13 -19 -14 -31 -3
-13 10 -19 10 -31 0 -12 -10 -18 -10 -30 0 -12 10 -18 10 -31 0 -12 -11 -18
-10 -31 3 -32 32 -10 44 77 44 62 0 83 -3 87 -14z m103 -8 c0 -31 -17 -33 -23
-2 l-4 22 -8 -22 c-4 -13 -11 -23 -16 -23 -5 0 -6 6 -3 14 3 8 1 17 -5 21 -7
3 -11 -2 -11 -14 0 -12 -4 -21 -10 -21 -5 0 -10 11 -10 25 0 23 4 25 45 25 41
0 45 -2 45 -25z m128 1 c5 -24 -17 -37 -41 -25 -12 7 -22 7 -31 0 -7 -6 -16
-8 -19 -4 -4 3 -7 -1 -7 -10 0 -9 -4 -17 -10 -17 -5 0 -10 18 -10 40 l0 39 57
-2 c48 -2 58 -5 61 -21z m66 8 c8 -22 7 -34 -3 -34 -5 0 -12 10 -16 23 l-8 22
-4 -22 c-6 -31 -23 -29 -23 2 0 20 5 25 24 25 13 0 27 -7 30 -16z m116 -9 c0
-25 -27 -42 -43 -26 -7 7 -16 7 -29 0 -15 -8 -20 -6 -27 13 -12 32 -7 36 49
36 46 1 50 -1 50 -23z m57 3 c-1 -26 -14 -38 -32 -32 -9 4 -12 32 -6 52 1 1
10 2 20 2 14 0 19 -6 18 -22z m-817 -8 c9 -18 8 -20 -15 -20 -27 0 -28 1 -19
24 8 22 21 20 34 -4z m-390 -10 c0 -5 -2 -10 -4 -10 -3 0 -8 5 -11 10 -3 6 -1
10 4 10 6 0 11 -4 11 -10z m0 -30 c0 -5 -2 -10 -4 -10 -3 0 -8 5 -11 10 -3 6
-1 10 4 10 6 0 11 -4 11 -10z m-2222 -36 c24 -16 29 -43 11 -61 -9 -9 -8 -16
5 -28 21 -22 20 -41 -4 -65 -25 -25 -61 -26 -90 -2 -19 15 -22 24 -15 48 5 16
7 46 6 67 -2 31 1 39 21 46 33 14 41 13 66 -5z m-328 -1 c0 -22 -67 -163 -77
-163 -7 0 2 30 23 76 19 41 34 77 34 79 0 2 -24 6 -52 8 l-53 3 63 2 c34 1 62
-1 62 -5z m182 -20 c1 -16 1 -40 2 -55 0 -16 5 -28 13 -28 7 0 13 -4 13 -10 0
-5 -4 -10 -10 -10 -5 0 -10 -9 -10 -20 0 -11 -7 -20 -15 -20 -8 0 -15 9 -15
20 0 17 -7 20 -46 20 -25 0 -44 4 -42 8 11 28 85 122 96 122 6 0 13 -12 14
-27z m308 -58 c14 -17 0 -21 -17 -4 -19 19 -55 -8 -51 -39 2 -22 8 -27 32 -27
36 0 46 22 14 28 -17 3 -15 5 10 6 35 1 37 -1 22 -30 -16 -29 -65 -25 -86 6
-15 23 -15 27 0 50 19 28 57 33 76 10z m95 -17 c0 -14 3 -29 7 -33 15 -16 -6
-35 -38 -35 l-34 0 0 51 0 50 33 -3 c27 -3 32 -7 32 -30z m-535 -59 c0 -5 -7
-9 -15 -9 -15 0 -20 12 -9 23 8 8 24 -1 24 -14z m3090 -40 c0 -16 3 -19 13
-11 6 5 22 13 35 16 17 6 22 3 22 -10 0 -13 3 -14 14 -5 11 9 20 9 35 2 13 -7
22 -8 26 -1 9 14 21 12 39 -6 15 -14 16 -14 16 5 0 12 5 21 10 21 6 0 10 -16
10 -35 0 -19 -4 -35 -10 -35 -5 0 -10 5 -10 11 0 8 -4 8 -12 2 -7 -6 -57 -10
-111 -11 l-99 0 4 29 c6 38 -5 37 -19 -1 -6 -16 -16 -30 -22 -30 -11 0 -31 40
-31 61 0 18 18 9 25 -13 5 -17 8 -19 12 -8 6 17 32 40 45 40 4 0 8 -10 8 -21z
m250 -5 c0 -12 4 -14 13 -7 25 20 47 11 47 -19 0 -26 -2 -28 -40 -26 -38 1
-40 3 -40 35 0 18 5 33 10 33 6 0 10 -7 10 -16z m300 0 c0 -12 3 -14 13 -6 22
19 52 7 55 -21 3 -24 0 -27 -27 -27 -18 0 -31 5 -31 13 0 9 -2 9 -9 -1 -4 -8
-19 -12 -32 -10 -33 4 -37 41 -7 56 32 15 38 14 38 -4z m-142 -8 c7 -4 18 -3
25 2 25 19 47 10 47 -20 0 -26 -2 -28 -39 -26 -30 1 -41 6 -47 22 -6 21 -7 21
-11 -1 -5 -28 -23 -30 -23 -3 0 11 -4 20 -10 20 -5 0 -10 -9 -10 -20 0 -11 -4
-20 -10 -20 -5 0 -10 13 -10 30 0 28 2 30 38 27 20 -1 43 -6 50 -11z m-1059
-53 c-7 -10 -10 -15 -5 -11 5 4 17 3 27 -3 15 -8 19 -6 19 8 0 15 2 16 10 3 9
-13 10 -13 10 0 1 11 4 10 15 -4 13 -17 18 -16 17 4 -1 8 53 4 68 -5 9 -5 11
-4 6 3 -5 8 2 12 19 12 l26 0 -3 -127 -3 -128 -27 -3 c-15 -2 -37 3 -49 12
-19 13 -25 12 -67 -11 l-46 -26 -14 22 c-17 25 -46 27 -85 6 -25 -13 -31 -12
-67 6 -22 12 -40 24 -40 28 0 12 -58 51 -82 55 -13 3 -23 5 -23 7 0 7 -146 5
-151 -2 -10 -17 -41 -9 -68 16 -26 24 -46 30 -91 25 -30 -2 -47 -30 -42 -66
l5 -31 -24 24 c-13 13 -24 28 -24 33 0 5 -39 8 -87 7 -79 -2 -89 0 -110 21
-12 12 -31 22 -43 22 -11 0 -20 4 -20 8 0 5 -15 16 -32 26 -18 9 -26 15 -17
12 9 -2 22 1 29 7 10 9 11 9 5 -2 -7 -11 -2 -13 23 -8 17 4 34 3 36 -2 3 -5
14 -11 24 -13 15 -4 18 0 15 21 -3 23 -2 24 6 6 6 -12 10 -15 10 -6 1 8 4 11
8 8 3 -4 12 -2 20 5 11 8 12 7 7 -5 -9 -24 29 -26 44 -2 13 19 13 19 8 0 -6
-18 -5 -18 7 -3 8 10 18 13 26 8 8 -4 30 -6 49 -4 20 1 43 -2 50 -9 11 -9 17
-7 28 8 8 10 14 13 14 7 0 -7 12 -12 26 -12 16 0 23 -4 18 -12 -5 -7 -3 -8 5
-4 7 5 10 14 7 22 -3 8 -1 14 4 14 6 0 10 -4 10 -10 0 -5 7 -10 16 -10 8 0 13
3 11 8 -10 15 48 9 61 -6 7 -10 10 -11 6 -3 -5 11 -2 13 14 9 15 -4 25 0 32
10 5 10 10 13 10 7 0 -5 4 -4 9 4 10 15 22 12 61 -16 13 -10 21 -13 17 -7 -9
15 32 32 66 29 17 -2 31 3 37 13 8 14 9 14 10 2 0 -15 60 -25 60 -10 0 4 9 10
19 13 15 3 18 1 14 -12 -4 -12 -2 -11 9 3 8 10 19 16 24 13 6 -3 16 -2 24 4
24 14 33 10 19 -8z m-654 -13 c3 -5 -1 -10 -9 -10 -9 0 -16 5 -16 10 0 6 4 10
9 10 6 0 13 -4 16 -10z m369 -5 c-4 -8 -11 -12 -16 -9 -6 4 -5 10 3 15 19 12
19 11 13 -6z m-3934 -31 c0 -11 4 -12 19 -2 15 9 23 9 35 -1 11 -9 16 -10 16
-2 0 6 7 11 15 11 12 0 14 -7 9 -27 -9 -36 -13 -40 -23 -24 -6 9 -11 10 -15 2
-10 -15 -46 -14 -47 2 0 10 -2 10 -6 0 -6 -16 -45 -17 -61 -1 -9 9 -12 9 -12
0 0 -7 -10 -12 -23 -12 -13 0 -28 5 -35 12 -9 9 -12 9 -12 0 0 -21 -41 -14
-47 8 -7 27 -23 25 -23 -2 0 -16 -3 -19 -11 -11 -22 22 -6 48 31 50 19 1 40
-3 47 -8 7 -7 13 -6 18 1 11 18 55 12 55 -7 1 -17 1 -17 11 0 5 9 17 17 24 17
8 0 15 5 15 11 0 5 5 7 10 4 6 -3 10 -13 10 -21z m667 13 c-4 -10 9 -13 52
-13 53 1 56 0 59 -25 3 -27 3 -27 -62 -26 l-66 0 0 39 c0 21 5 38 11 38 6 0 9
-6 6 -13z m186 -8 l22 -20 3 20 c4 27 22 27 22 1 0 -17 3 -19 19 -8 15 9 23 9
34 -1 10 -8 17 -9 22 -1 3 5 17 10 31 10 22 0 24 -4 24 -45 0 -25 -4 -45 -10
-45 -5 0 -10 7 -10 15 0 15 -20 19 -69 15 -13 -1 -28 4 -32 12 -5 7 -9 8 -9 2
0 -6 -20 -12 -45 -12 -45 -2 -45 -2 -45 31 0 51 10 57 43 26z m437 1 c0 -17 3
-19 19 -8 15 9 23 9 35 -1 12 -10 16 -10 16 -2 0 7 10 11 22 9 17 -2 23 -10
23 -28 0 -21 -5 -25 -27 -25 -49 1 -30 -10 60 -34 48 -13 107 -30 131 -37 24
-8 46 -12 49 -10 2 3 11 -1 18 -9 8 -8 27 -12 44 -10 18 2 30 -1 30 -8 0 -6 6
-3 13 8 8 10 19 15 25 11 6 -3 14 -1 18 5 4 8 9 7 15 -2 6 -10 9 -8 9 9 0 12
5 22 11 22 5 0 8 -4 4 -9 -7 -12 32 -34 45 -26 6 3 10 13 10 21 0 12 4 12 20
4 16 -8 24 -7 36 4 15 16 39 12 62 -11 15 -14 36 -18 28 -4 -3 4 6 13 20 20
33 15 37 14 30 -4 -8 -21 0 -19 25 8 15 15 20 17 16 5 -4 -11 -1 -15 11 -13 9
2 29 4 44 4 21 1 26 5 21 17 -4 12 -2 15 8 12 8 -3 14 -10 14 -16 0 -5 3 -14
8 -18 4 -4 7 -2 7 5 0 7 4 10 9 6 5 -3 12 -1 16 5 3 5 11 10 16 10 6 0 8 -4 5
-8 -3 -5 1 -9 9 -9 18 0 19 9 3 25 -6 6 -9 14 -5 18 3 3 17 -6 31 -21 l26 -28
0 26 c0 31 -17 45 -23 20 -3 -13 -7 -8 -12 15 -8 36 -25 43 -25 11 0 -15 -5
-19 -15 -15 -8 3 -22 -2 -30 -11 -15 -14 -17 -14 -29 3 -11 14 -17 16 -28 7
-8 -7 -23 -10 -35 -7 -16 5 -20 12 -17 41 3 41 12 53 24 33 6 -10 24 -14 54
-12 37 1 46 -2 47 -16 1 -15 2 -15 6 2 4 15 11 17 38 13 18 -3 44 1 59 8 20
10 28 11 33 2 5 -7 22 -12 38 -12 27 0 30 -3 27 -29 -5 -35 20 -32 28 5 4 18
14 25 35 27 17 2 33 9 37 15 6 9 10 8 17 -2 12 -19 283 -21 289 -2 5 15 22 14
22 -2 0 -9 9 -12 29 -9 32 4 45 -9 36 -38 -8 -25 -40 -26 -54 -2 -10 16 -10
16 -11 0 0 -21 -39 -25 -58 -6 -9 9 -12 9 -12 0 0 -8 -19 -12 -54 -12 -43 0
-58 -4 -69 -20 -8 -11 -16 -17 -20 -14 -3 3 -14 1 -25 -5 -14 -7 -29 -8 -46
-1 -28 10 -64 2 -133 -32 -23 -11 -47 -17 -53 -13 -9 6 -9 10 1 16 11 6 11 11
1 21 -18 18 -15 30 7 23 11 -3 22 -2 25 4 8 13 -73 26 -86 13 -7 -7 -3 -12 11
-17 12 -3 22 -11 23 -16 3 -23 3 -29 -4 -26 -3 1 -17 -8 -30 -20 -23 -21 -70
-26 -97 -9 -6 4 -24 0 -39 -10 -15 -10 -32 -19 -38 -20 -6 -1 -21 -5 -33 -9
-12 -4 -21 -2 -21 4 0 6 -7 11 -15 11 -8 0 -15 5 -15 11 0 8 -4 8 -15 -1 -8
-6 -19 -9 -25 -5 -6 4 -18 -1 -25 -11 -8 -11 -15 -14 -15 -8 0 6 -10 11 -22
10 -16 -1 -24 -8 -26 -23 -3 -19 -7 -21 -21 -13 -10 5 -22 6 -26 2 -4 -4 -21
-7 -38 -7 -24 0 -35 -6 -42 -23 -9 -20 -15 -23 -46 -18 -20 3 -39 3 -42 -1
-10 -9 -68 -10 -101 -1 -16 4 -34 3 -41 -2 -12 -10 -33 -9 -53 4 -17 10 -83
-59 -76 -79 4 -8 10 -12 15 -9 5 3 9 0 9 -5 0 -30 -43 12 -45 44 -1 6 -6 9
-13 8 -7 -2 -12 1 -12 6 0 11 -81 4 -116 -9 -14 -6 -26 -5 -29 0 -3 5 -21 7
-38 5 -28 -5 -36 -1 -55 25 -13 16 -29 30 -37 30 -19 0 -25 13 -15 30 8 13 12
12 25 -5 11 -15 14 -16 9 -3 -5 14 0 17 23 15 18 -1 27 3 26 11 -3 14 13 16
22 3 3 -5 -4 -16 -15 -24 -17 -12 -18 -16 -6 -20 8 -3 17 1 20 10 5 12 9 13
22 3 12 -11 12 -15 2 -22 -10 -7 -10 -9 2 -5 8 2 15 10 16 18 3 41 3 42 19 29
12 -10 13 -15 4 -20 -8 -6 -8 -9 0 -14 6 -4 11 -3 11 2 0 16 33 24 42 10 5 -8
6 -3 2 14 -5 24 -3 26 17 21 13 -4 20 -2 16 3 -3 5 3 10 14 10 11 0 18 -5 15
-12 -3 -7 2 -15 10 -18 8 -3 12 -2 9 3 -3 5 -1 12 5 16 5 3 10 -1 10 -10 0 -9
5 -13 11 -10 6 4 8 13 5 21 -4 10 2 14 19 14 14 0 25 5 25 10 0 6 5 10 11 10
6 0 8 -9 4 -20 -6 -18 -4 -19 19 -9 14 7 23 16 19 22 -4 6 -1 7 8 1 20 -12 47
-15 53 -6 7 12 -314 112 -358 112 -22 0 -36 5 -36 13 0 8 -3 8 -9 -2 -6 -9
-19 -12 -38 -8 -16 3 -35 2 -43 -3 -8 -5 -19 -6 -24 -2 -6 3 -25 5 -43 3 -31
-2 -33 0 -33 29 0 35 19 32 21 -3 1 -21 1 -20 8 3 6 22 12 24 79 27 40 1 72
-2 72 -6 0 -5 11 -4 25 2 14 7 25 15 25 20 0 4 5 7 10 7 6 0 10 -9 10 -20z
m532 8 c2 -6 24 -12 47 -12 54 -1 78 -28 47 -51 -12 -9 -25 -11 -35 -6 -9 5
-22 6 -28 4 -8 -3 -13 4 -13 16 0 12 -4 21 -10 21 -5 0 -10 -9 -10 -19 0 -16
-7 -19 -52 -18 -33 1 -53 6 -53 14 0 6 -3 15 -7 19 -5 4 -8 -2 -8 -14 0 -19
-5 -21 -45 -20 -49 3 -50 4 -35 42 12 34 28 33 42 -1 11 -27 12 -27 15 -5 3
16 11 22 29 22 13 0 24 -5 24 -11 0 -8 5 -8 15 1 8 7 24 10 35 7 13 -3 20 0
20 9 0 17 17 19 22 2z m228 -13 c20 0 26 -6 28 -27 2 -18 -1 -28 -10 -29 -7 0
-31 -1 -53 -3 -45 -2 -65 8 -65 35 0 23 51 50 65 35 6 -6 21 -11 35 -11z
m-2445 -22 c0 -33 -8 -42 -21 -22 -4 8 -9 7 -15 -2 -6 -9 -9 -1 -9 24 0 34 3
38 23 35 18 -2 22 -9 22 -35z m159 -1 c1 -41 -20 -42 -26 -2 -5 32 0 42 15 37
6 -2 11 -17 11 -35z m-92 11 c7 -28 -2 -43 -27 -43 -27 0 -40 26 -24 46 16 20
46 17 51 -3z m53 7 c3 -5 0 -10 -7 -10 -10 0 -10 -2 1 -9 16 -10 6 -31 -14
-31 -8 0 -17 5 -21 12 -5 8 -1 9 12 5 18 -7 18 -7 0 7 -10 8 -15 19 -11 25 8
14 32 14 40 1z m432 -1 c8 -8 13 -8 17 0 11 17 39 13 33 -4 -4 -8 -2 -17 4
-20 14 -10 0 -25 -23 -25 -14 0 -18 5 -14 15 3 8 1 15 -3 15 -5 0 -11 -7 -15
-15 -7 -20 -42 -19 -50 1 -12 31 27 57 51 33z m109 -6 c13 -17 13 -17 14 0 0
9 5 17 10 17 13 0 13 -3 -6 -50 -19 -47 -31 -52 -31 -12 0 15 -3 35 -7 45 -5
9 -5 17 -1 17 4 0 14 -8 21 -17z m122 -15 c3 -25 0 -28 -26 -28 -34 0 -49 24
-31 47 20 23 54 12 57 -19z m60 0 c2 -16 -1 -28 -7 -28 -6 0 -11 9 -11 20 0
27 -18 25 -23 -2 -3 -16 -5 -13 -6 10 -1 29 2 33 22 30 16 -2 23 -11 25 -30z
m32 6 c0 -14 4 -23 10 -19 6 3 10 14 10 23 0 12 10 18 34 19 19 2 38 -1 41 -7
4 -6 13 -5 25 2 15 10 22 10 32 0 9 -9 7 -12 -11 -12 -14 0 -21 -5 -18 -12 2
-7 11 -12 21 -10 9 2 16 -2 16 -8 0 -15 -50 -13 -51 3 0 10 -2 10 -6 0 -8 -20
-23 -15 -23 7 0 11 -4 20 -10 20 -5 0 -10 -9 -10 -21 0 -17 -5 -20 -37 -17
-33 3 -38 7 -41 31 -2 15 1 27 7 27 6 0 11 -12 11 -26z m2675 6 c-3 -5 -12
-10 -18 -10 -7 0 -6 4 3 10 19 12 23 12 15 0z m-1430 -80 c3 -5 2 -10 -4 -10
-5 0 -13 5 -16 10 -3 6 -2 10 4 10 5 0 13 -4 16 -10z m120 -20 c3 -5 1 -10 -4
-10 -6 0 -11 5 -11 10 0 6 2 10 4 10 3 0 8 -4 11 -10z m-762 -61 c4 -16 3 -18
-9 -8 -7 6 -11 15 -8 20 8 13 11 11 17 -12z m-13 -40 c0 -6 9 -9 20 -6 11 3
20 0 20 -6 0 -7 -18 -13 -40 -14 -43 -3 -47 0 -27 22 15 17 27 19 27 4z m4960
-3 c0 -3 -4 -8 -10 -11 -5 -3 -10 -1 -10 4 0 6 5 11 10 11 6 0 10 -2 10 -4z
m-5043 -20 c6 -3 14 0 16 7 2 7 7 9 11 5 4 -3 3 -15 -3 -26 -9 -17 -37 -28
-88 -34 -7 -1 -13 -4 -13 -7 0 -10 -58 -71 -68 -71 -4 0 -18 -9 -31 -21 -12
-11 -28 -18 -36 -15 -8 3 -17 1 -20 -4 -4 -6 -17 -7 -31 -4 -22 6 -107 -17
-282 -76 -29 -10 -54 -14 -58 -9 -3 5 -14 9 -25 9 -10 0 -19 5 -19 10 0 9 14
14 32 12 3 -1 12 6 20 15 8 10 8 14 1 10 -6 -4 -14 -3 -18 3 -3 5 -1 10 4 10
6 0 13 0 16 0 13 0 41 36 37 48 -2 6 0 12 6 12 11 0 11 -18 0 -35 -9 -14 3
-66 13 -59 5 3 6 16 3 30 -5 19 -2 24 12 24 16 0 17 -2 4 -10 -13 -8 -13 -10
1 -10 23 0 30 10 18 31 -11 21 5 26 30 10 17 -11 61 14 57 32 -1 7 -1 9 1 5 3
-5 9 -8 14 -8 6 0 7 5 4 10 -3 6 1 10 9 10 9 0 16 7 16 15 0 8 5 15 10 15 13
0 13 -17 0 -25 -19 -12 0 -25 21 -15 15 9 19 7 20 -7 0 -11 4 -8 9 9 4 15 14
33 21 41 12 13 17 13 37 -6 l22 -20 0 21 c0 12 4 22 9 22 5 0 16 3 25 6 9 3
16 1 16 -6 0 -6 -4 -8 -10 -5 -5 3 -10 1 -10 -4 0 -13 20 -14 40 -1 13 8 12
11 -5 25 -20 16 -20 16 0 7 27 -12 45 -5 39 16 -5 15 -4 15 6 -1 12 -19 32
-14 24 7 -3 9 6 12 38 9 24 -2 48 -5 55 -7z m3813 -12 c0 -22 17 -17 25 9 5
17 8 18 11 6 6 -19 -12 -69 -25 -69 -5 0 -14 14 -20 31 -14 40 -14 52 -1 44 6
-3 10 -13 10 -21z m96 15 c4 -7 10 -7 17 0 7 7 16 3 28 -12 l18 -22 1 23 c0
13 3 21 8 19 6 -4 7 -54 2 -77 0 -3 -10 6 -20 19 -20 23 -20 23 -20 2 0 -12
-4 -21 -10 -21 -5 0 -10 9 -10 19 0 14 -5 18 -20 14 -11 -3 -20 -12 -20 -20 0
-8 -4 -11 -10 -8 -11 7 -14 58 -3 68 10 11 31 8 39 -4z m164 -29 c0 -32 -4
-40 -19 -40 -10 0 -24 6 -30 14 -15 18 -3 46 20 46 10 0 19 5 19 10 0 6 2 10
5 10 3 0 5 -18 5 -40z m151 10 c4 -14 7 -18 8 -9 1 25 116 26 130 1 10 -16 10
-16 11 1 0 9 5 17 10 17 12 0 12 -2 0 -35 -11 -29 -26 -25 -40 9 -8 19 -9 19
-9 -7 -1 -25 -4 -28 -28 -25 -20 2 -29 9 -31 26 -4 27 -22 19 -22 -10 0 -16
-3 -18 -14 -9 -10 8 -16 9 -21 1 -3 -5 -15 -10 -26 -10 -16 0 -19 7 -19 41 0
36 2 40 22 37 14 -2 25 -13 29 -28z m-5531 -3 c0 -14 -62 -163 -73 -173 -3 -3
-10 -3 -16 0 -6 4 4 36 24 81 l34 75 -44 0 c-33 0 -45 4 -45 15 0 12 13 15 60
15 43 0 60 -4 60 -13z m115 -81 c0 -63 -4 -91 -12 -93 -10 -4 -13 16 -13 75 0
63 -3 81 -16 86 -22 8 -6 28 19 24 21 -3 22 -8 22 -92z m5332 78 c3 -8 -2 -23
-11 -32 -15 -15 -17 -15 -32 0 -21 21 -11 48 16 48 11 0 23 -7 27 -16z m311
-12 c4 -28 -24 -41 -44 -20 -20 20 -7 50 20 46 13 -2 22 -12 24 -26z m592 18
c0 -5 -4 -10 -10 -10 -5 0 -10 5 -10 10 0 6 5 10 10 10 6 0 10 -4 10 -10z m0
-30 c0 -5 -4 -10 -10 -10 -5 0 -10 5 -10 10 0 6 5 10 10 10 6 0 10 -4 10 -10z
m-5362 -35 c-3 -3 -9 2 -12 12 -6 14 -5 15 5 6 7 -7 10 -15 7 -18z m-798 -10
c0 -9 9 -15 24 -15 26 0 36 -16 36 -61 0 -40 -18 -37 -22 3 -2 22 -9 34 -20
36 -15 3 -18 -4 -18 -32 0 -20 -4 -36 -10 -36 -6 0 -10 27 -10 60 0 33 4 60
10 60 6 0 10 -7 10 -15z m665 -26 c10 -30 0 -33 -13 -4 -6 14 -7 25 -2 25 5 0
12 -9 15 -21z m-515 -4 c31 -38 -27 -96 -65 -65 -18 15 -20 51 -3 68 17 17 53
15 68 -3z m70 6 c0 -5 -7 -11 -15 -15 -9 -3 -15 -18 -15 -36 0 -16 -4 -30 -10
-30 -5 0 -10 20 -10 45 0 41 2 45 25 45 14 0 25 -4 25 -9z m90 -34 c0 -43 -1
-44 -32 -45 -39 -1 -58 13 -58 42 0 31 19 46 57 46 32 0 33 -1 33 -43z m78 25
c3 -9 -4 -11 -25 -7 l-28 5 28 -11 c40 -16 34 -54 -7 -54 -16 0 -31 6 -34 14
-3 10 1 12 17 8 11 -3 21 -1 21 4 0 5 -6 9 -14 9 -19 0 -29 17 -22 36 7 18 57
15 64 -4z m62 -26 c0 -3 -4 -8 -10 -11 -5 -3 -10 -1 -10 4 0 6 5 11 10 11 6 0
10 -2 10 -4z m21 -19 c-10 -9 -11 -8 -5 6 3 10 9 15 12 12 3 -3 0 -11 -7 -18z
m-615 2 c10 -17 -13 -36 -27 -22 -12 12 -4 33 11 33 5 0 12 -5 16 -11z m4207
-59 c3 -11 3 -20 1 -20 -2 0 -8 9 -14 20 -6 11 -7 20 -2 20 6 0 12 -9 15 -20z
m-3763 0 c0 -5 -4 -10 -10 -10 -5 0 -10 5 -10 10 0 6 5 10 10 10 6 0 10 -4 10
-10z m3710 0 c18 -12 2 -12 -25 0 -13 6 -15 9 -5 9 8 0 22 -4 30 -9z m-3550
-21 c0 -6 -4 -7 -10 -4 -5 3 -10 11 -10 16 0 6 5 7 10 4 6 -3 10 -11 10 -16z
m3624 -25 c3 -8 2 -12 -4 -9 -6 3 -10 10 -10 16 0 14 7 11 14 -7z m-3694 -16
c0 -6 -6 -5 -15 2 -8 7 -15 14 -15 16 0 2 7 1 15 -2 8 -4 15 -11 15 -16z
m-630 -38 c0 -17 3 -19 19 -8 15 9 23 9 35 -1 12 -10 16 -10 16 -2 0 8 15 11
43 9 38 -3 42 -6 45 -30 2 -16 -1 -28 -7 -28 -6 0 -12 10 -12 23 l-2 22 -4
-22 c-2 -13 -11 -23 -19 -23 -8 0 -15 10 -15 23 -2 22 -2 22 -6 0 -4 -20 -10
-23 -58 -23 -54 0 -55 1 -55 31 0 16 -4 29 -10 29 -5 0 -10 -13 -10 -30 0 -16
-4 -30 -10 -30 -5 0 -10 14 -10 30 0 17 -6 31 -12 31 -11 1 24 11 65 18 4 0 7
-8 7 -19z m410 13 c0 -5 11 -13 25 -20 14 -6 25 -7 25 -2 0 13 34 11 48 -3 9
-9 12 -9 12 0 0 8 22 12 71 12 48 0 68 -3 63 -11 -3 -6 8 -4 24 5 41 21 42 21
42 -19 0 -30 -3 -35 -23 -35 -13 0 -28 5 -35 12 -9 9 -12 9 -12 0 0 -22 -50
-14 -60 11 -6 16 -9 17 -9 5 -1 -27 -20 -31 -30 -6 -10 23 -10 23 -10 1 -1
-21 -5 -23 -56 -23 -50 0 -55 2 -55 21 0 10 -4 19 -10 19 -5 0 -9 -3 -9 -7 5
-29 -3 -34 -43 -31 -38 3 -43 6 -43 28 0 21 5 26 33 28 17 2 32 7 32 13 0 5 5
9 10 9 6 0 10 -3 10 -7z m581 -37 c6 -6 9 -4 9 7 0 13 9 16 38 15 20 0 42 -5
49 -10 7 -5 14 -5 18 2 8 13 45 13 45 0 0 -5 16 -1 35 10 l35 20 0 -27 c0 -26
1 -26 14 -7 12 15 18 17 33 8 10 -6 19 -19 21 -28 5 -21 -26 -32 -49 -17 -11
6 -19 7 -19 2 0 -14 -113 -12 -122 2 -6 9 -8 9 -8 0 0 -7 -4 -13 -10 -13 -5 0
-10 9 -10 20 0 11 -4 20 -10 20 -5 0 -10 -9 -10 -20 0 -11 -4 -20 -10 -20 -5
0 -10 9 -10 20 0 11 -4 20 -10 20 -5 0 -10 -9 -10 -20 0 -17 -7 -19 -64 -18
-63 1 -65 2 -63 27 2 19 8 26 22 26 11 0 25 3 31 7 17 11 24 -2 18 -28 -4 -15
-2 -24 5 -24 6 0 12 17 12 38 1 21 3 28 6 17 3 -11 9 -24 14 -29z m5139 34 c0
-5 -5 -10 -11 -10 -5 0 -7 5 -4 10 3 6 8 10 11 10 2 0 4 -4 4 -10z m-5902 -22
c9 -9 12 -9 12 0 0 7 8 12 18 12 18 0 42 -18 42 -31 0 -19 -32 -39 -49 -30
-10 6 -23 6 -31 1 -8 -5 -18 -6 -22 -4 -4 3 -8 -2 -8 -10 0 -9 -4 -16 -10 -16
-5 0 -10 20 -10 45 0 40 2 45 23 45 13 0 28 -5 35 -12z m552 -3 c18 -21 5 -45
-25 -45 -20 0 -25 5 -25 23 0 39 26 50 50 22z m88 -18 c3 -23 0 -27 -21 -27
-29 0 -43 26 -26 47 18 21 44 11 47 -20z m3693 -70 c-10 -9 -11 -8 -5 6 3 10
9 15 12 12 3 -3 0 -11 -7 -18z m-204 -39 c-3 -8 -6 -5 -6 6 -1 11 2 17 5 13 3
-3 4 -12 1 -19z m782 -21 c9 16 10 16 11 -5 0 -15 5 -22 13 -19 6 2 11 10 9
16 -1 7 2 10 8 6 26 -16 8 -32 -35 -31 -41 0 -45 2 -45 26 1 23 2 24 14 7 14
-18 15 -18 25 0z m297 -9 c4 -7 3 -8 -4 -4 -7 4 -12 0 -12 -10 0 -10 -3 -15
-6 -11 -7 6 2 37 10 37 3 0 8 -5 12 -12z m64 -3 c0 -8 5 -15 11 -15 5 0 7 5 3
12 -5 8 0 9 14 6 12 -4 25 -2 28 3 10 17 24 9 23 -13 -1 -18 -2 -19 -6 -5 -2
9 -9 15 -14 11 -5 -3 -7 -9 -5 -13 3 -4 -19 -9 -49 -10 -43 -2 -55 1 -55 13 0
13 13 20 43 25 4 0 7 -6 7 -14z m243 2 c4 3 7 -1 7 -11 0 -14 -4 -15 -20 -6
-14 7 -20 7 -20 0 0 -15 -26 -12 -40 5 -9 10 -9 15 -1 15 6 0 11 -5 11 -12 0
-8 6 -6 17 5 11 11 21 13 28 7 7 -6 15 -7 18 -3z m156 -9 c11 -15 11 -18 -1
-18 -7 0 -14 10 -15 21 -1 12 -1 20 0 18 2 -2 9 -12 16 -21z m81 2 c0 -11 -4
-20 -8 -20 -4 0 -8 9 -9 20 -1 11 2 20 8 20 5 0 9 -9 9 -20z m150 -3 c0 6 16
11 35 11 37 0 46 -11 18 -22 -9 -4 -20 -1 -25 6 -8 10 -11 10 -15 1 -9 -23
-43 -15 -43 10 1 21 1 22 15 3 8 -11 15 -15 15 -9z m-910 -2 c7 -9 8 -15 2
-15 -5 0 -12 7 -16 15 -3 8 -4 15 -2 15 2 0 9 -7 16 -15z m47 -5 c1 -11 -2
-20 -8 -20 -5 0 -9 9 -9 20 0 11 4 20 8 20 4 0 8 -9 9 -20z m36 3 c-3 -7 -9
-13 -14 -13 -5 0 -9 6 -9 13 0 8 6 14 14 14 8 0 12 -6 9 -14z m60 0 c-7 -17
-23 -17 -23 0 0 8 -4 7 -10 -3 -8 -13 -10 -12 -10 2 0 13 7 17 24 16 15 -1 22
-7 19 -15z m34 -5 c-3 -8 -6 -5 -6 6 -1 11 2 17 5 13 3 -3 4 -12 1 -19z m235
0 c-7 -28 -22 -32 -22 -5 0 13 6 24 14 24 8 0 11 -8 8 -19z m134 -13 c-3 -8
-11 -15 -18 -14 -10 0 -10 2 0 6 6 2 12 14 13 26 0 12 3 16 6 9 3 -7 2 -19 -1
-27z m35 26 c7 11 9 10 9 -3 0 -10 -7 -18 -15 -18 -8 0 -15 8 -14 18 0 12 2
13 6 3 5 -11 7 -11 14 0z m26 -13 c-3 -8 -6 -5 -6 6 -1 11 2 17 5 13 3 -3 4
-12 1 -19z m43 7 c0 -8 -4 -15 -10 -15 -5 0 -10 7 -10 15 0 8 5 15 10 15 6 0
10 -7 10 -15z m80 0 c0 -6 -7 -12 -15 -12 -8 0 -15 6 -15 12 0 6 7 12 15 12 8
0 15 -6 15 -12z m80 6 c0 -5 -7 -11 -15 -15 -9 -3 -15 0 -15 9 0 8 7 15 15 15
8 0 15 -4 15 -9z m17 -13 c-3 -8 -6 -5 -6 6 -1 11 2 17 5 13 3 -3 4 -12 1 -19z
m20 0 c-3 -8 -6 -5 -6 6 -1 11 2 17 5 13 3 -3 4 -12 1 -19z m170 0 c-3 -8 -6
-5 -6 6 -1 11 2 17 5 13 3 -3 4 -12 1 -19z m-1647 -22 c0 -2 -18 -6 -40 -8
-22 -2 -40 0 -40 4 0 5 18 8 40 8 22 0 40 -2 40 -4z m550 -77 c0 -6 9 -8 23
-4 17 5 19 4 7 -4 -13 -10 -13 -12 0 -21 9 -6 10 -10 3 -10 -6 0 -15 5 -18 10
-5 8 -11 7 -20 0 -18 -15 -35 -4 -35 21 0 12 7 19 20 19 11 0 20 -5 20 -11z
m120 4 c0 -3 -7 -11 -15 -19 -13 -14 -15 -13 -15 4 0 10 7 19 15 19 8 0 15 -2
15 -4z m167 -25 c-3 -7 -5 -2 -5 12 0 14 2 19 5 13 2 -7 2 -19 0 -25z m48 23
c3 -6 -4 -15 -15 -21 -17 -9 -20 -8 -20 10 0 20 24 28 35 11z m277 -5 c30 -1
51 -16 22 -16 -14 0 -15 -3 -6 -8 7 -5 -7 -8 -35 -7 -26 1 -49 7 -51 14 -5 15
-31 14 -48 -3 -19 -20 -68 -15 -72 7 -2 11 3 17 15 17 15 0 15 -2 3 -10 -8 -5
-12 -12 -9 -15 8 -8 40 5 35 14 -9 14 69 9 92 -5 26 -17 30 -8 5 13 -17 14
-17 14 2 7 11 -4 32 -8 47 -8z m256 -2 c21 5 23 4 12 -4 -11 -7 -12 -12 -3
-18 6 -4 -16 -7 -49 -7 -45 0 -63 4 -66 15 -4 13 -3 13 11 2 13 -11 16 -10 22
7 5 18 10 19 27 10 11 -6 32 -8 46 -5z m175 4 c21 5 21 4 -2 -17 -14 -12 -31
-19 -39 -16 -7 3 -19 5 -25 5 -7 0 -1 9 13 20 14 10 26 15 28 11 2 -5 13 -6
25 -3z m-972 -17 c7 11 9 10 9 -4 0 -22 -25 -18 -26 4 -1 12 0 12 4 0 3 -12 5
-12 13 0z m89 9 c0 -5 -6 -10 -12 -10 -9 0 -8 -4 2 -11 13 -9 13 -10 0 -6 -21
5 -26 37 -6 37 9 0 16 -4 16 -10z m50 -2 c0 -9 4 -8 10 2 8 13 10 12 10 -4 0
-16 2 -17 17 -5 14 12 16 12 11 -1 -2 -8 -18 -15 -34 -16 -23 -1 -30 3 -31 17
-1 11 2 19 8 19 5 0 9 -6 9 -12z m180 1 c0 -14 -12 -39 -19 -39 -3 0 -7 11 -7
23 -1 14 4 24 12 24 8 0 14 -4 14 -8z m300 0 c0 -5 4 -8 9 -4 5 3 13 0 17 -7
5 -8 10 -6 16 8 8 18 8 18 5 -1 -2 -14 -10 -20 -29 -20 -15 -1 -24 3 -22 7 3
4 0 8 -5 8 -6 0 -11 5 -11 10 0 6 5 10 10 10 6 0 10 -5 10 -11z m240 -9 c0
-22 -15 -27 -26 -8 -5 7 -3 8 6 3 10 -6 12 -4 7 8 -3 10 -2 17 3 17 6 0 10 -9
10 -20z m31 11 c-8 -5 -10 -14 -6 -21 5 -9 4 -11 -3 -6 -18 11 -14 36 6 36 13
0 14 -2 3 -9z m-966 -111 c4 -6 10 -8 15 -5 4 3 6 -5 2 -17 -5 -20 -6 -20 -12
-4 -6 17 -7 17 -23 2 -16 -16 -17 -16 -17 8 0 26 23 36 35 16z m335 -14 c0
-23 -3 -24 -47 -22 -36 1 -49 6 -51 19 -2 9 1 17 7 17 6 0 8 -8 5 -17 -5 -16
-4 -16 10 1 8 10 19 15 25 11 6 -3 19 -1 28 4 24 14 23 14 23 -13z m107 -13
c-3 -10 -5 -4 -5 12 0 17 2 24 5 18 2 -7 2 -21 0 -30z m224 22 c19 5 21 4 9
-4 -13 -9 -13 -12 -1 -20 9 -6 4 -8 -16 -7 -17 1 -38 7 -47 15 -9 8 -16 9 -16
3 0 -6 5 -12 12 -14 7 -3 6 -7 -5 -11 -13 -5 -17 -1 -17 19 0 21 4 25 20 21
11 -3 20 0 20 6 0 8 4 7 9 -2 5 -8 17 -11 32 -6z m347 -1 c6 3 14 1 18 -5 4
-8 3 -9 -4 -5 -7 4 -12 3 -12 -3 0 -5 6 -11 13 -14 6 -2 -5 -5 -26 -5 -44 0
-53 10 -31 33 13 12 19 13 24 4 4 -6 12 -9 18 -5z m-948 -20 c0 -8 -7 -14 -15
-14 -15 0 -21 21 -9 33 10 9 24 -2 24 -19z m17 -6 c-3 -7 -5 -2 -5 12 0 14 2
19 5 13 2 -7 2 -19 0 -25z m129 19 c4 -4 0 -7 -8 -7 -9 0 -21 -7 -28 -15 -12
-14 -15 -14 -30 0 -9 8 -23 15 -31 15 -12 0 -11 -2 1 -10 9 -6 10 -10 3 -10
-14 0 -26 17 -19 28 6 10 102 10 112 -1z m162 -10 c2 -10 -3 -17 -12 -17 -9 0
-16 5 -16 11 0 5 6 7 13 3 7 -5 6 0 -3 11 -13 16 -13 18 0 13 8 -2 16 -12 18
-21z m29 3 c1 -11 -2 -20 -5 -20 -4 0 -8 9 -9 20 -1 11 2 20 5 20 4 0 8 -9 9
-20z m81 -3 c2 -10 -3 -17 -12 -17 -9 0 -16 5 -16 11 0 5 6 7 13 3 7 -5 6 0
-3 11 -13 16 -13 18 0 13 8 -2 16 -12 18 -21z m29 3 c1 -11 -2 -20 -5 -20 -4
0 -8 9 -9 20 -1 11 2 20 5 20 4 0 8 -9 9 -20z m63 -6 c0 -8 -7 -14 -15 -14 -8
0 -15 5 -15 11 0 5 5 7 12 3 8 -5 9 -2 5 10 -4 10 -3 15 3 11 6 -3 10 -13 10
-21z m150 0 c0 -8 -7 -14 -15 -14 -8 0 -15 5 -15 11 0 5 5 7 12 3 8 -5 9 -2 5
10 -4 10 -3 15 3 11 6 -3 10 -13 10 -21z m24 15 c-3 -6 0 -15 7 -20 11 -7 10
-9 -3 -9 -18 0 -24 20 -11 33 10 11 15 8 7 -4z m146 1 c0 -3 -9 -11 -20 -18
-17 -10 -20 -10 -20 3 0 19 -7 19 -26 0 -18 -18 -24 -18 -44 -5 -12 8 -12 12
-3 18 14 9 113 11 113 2z m40 -22 c0 -5 -5 -8 -11 -8 -5 0 -7 5 -4 10 3 6 1
10 -5 10 -6 0 -8 5 -4 11 6 11 23 -6 24 -23z m137 0 c-3 -7 -5 -2 -5 12 0 14
2 19 5 13 2 -7 2 -19 0 -25z m34 13 c7 11 9 10 9 -3 0 -10 -7 -18 -15 -18 -8
0 -15 8 -14 18 0 12 2 13 6 3 5 -11 7 -11 14 0z m-1111 -96 c0 -28 -17 -34
-27 -9 -3 9 0 20 8 25 19 12 19 12 19 -16z m209 -2 c0 -25 -1 -26 -9 -8 -5 12
-9 14 -9 6 -1 -8 -4 -11 -7 -8 -6 6 13 37 22 37 2 0 4 -12 3 -27z m-164 7 c-3
-5 -1 -10 4 -10 6 0 11 4 11 9 0 4 24 8 53 7 43 0 53 -4 54 -18 1 -10 -3 -18
-8 -18 -6 0 -7 5 -4 10 3 6 2 10 -4 10 -5 0 -13 -5 -16 -11 -4 -6 -14 -8 -22
-5 -8 3 -23 1 -34 -4 -12 -7 -19 -7 -19 -1 0 6 -6 8 -13 5 -7 -2 -13 4 -14 16
-1 11 3 20 8 20 6 0 7 -4 4 -10z m261 -2 c11 -18 -13 -33 -31 -18 -12 10 -15
10 -15 -1 0 -10 -3 -10 -12 -1 -10 10 -10 15 -1 20 19 12 52 12 59 0z m-4953
-24 c5 -9 26 -14 57 -14 l50 0 0 -63 c0 -70 -10 -87 -52 -87 -28 0 -37 13 -18
25 25 16 5 25 -55 25 l-65 0 0 58 c0 32 5 63 11 69 13 13 62 4 72 -13z m442
-20 c14 -22 19 -23 32 -12 14 12 15 11 5 -8 -9 -18 -7 -27 13 -55 14 -18 25
-37 25 -41 0 -18 -36 -6 -57 20 l-22 27 -25 -30 c-14 -16 -25 -25 -26 -19 0 6
9 19 20 29 25 23 25 43 0 75 -25 31 -25 40 -1 40 10 0 26 -12 36 -26z m-827
-2 c2 -7 -5 -16 -17 -19 -24 -6 -28 -23 -6 -23 8 0 15 -7 15 -15 0 -9 -7 -18
-15 -21 -9 -4 -15 -19 -15 -35 0 -22 -5 -29 -20 -29 -16 0 -20 7 -20 30 0 17
-4 30 -10 30 -5 0 -10 9 -10 20 0 11 5 20 10 20 6 0 10 8 10 18 0 10 6 24 12
30 16 16 60 12 66 -6z m1361 -35 c-14 -10 -14 -14 -3 -25 19 -17 1 -52 -26
-52 -11 0 -20 -4 -20 -9 0 -5 -7 -12 -16 -15 -19 -7 -46 12 -41 28 2 6 -2 17
-10 24 -19 20 -16 56 8 77 17 16 25 17 49 8 16 -6 29 -8 28 -5 -2 23 5 24 25
4 20 -21 20 -24 6 -35z m-123 -64 c-7 -7 -26 7 -26 19 0 6 6 6 15 -2 9 -7 13
-15 11 -17z m5027 -14 c34 -18 37 -28 37 -126 0 -148 81 -133 -724 -133 l-685
0 -20 26 c-18 22 -21 41 -21 111 0 76 2 86 25 108 l24 25 671 0 c487 0 677 -3
693 -11z m-6484 -216 c9 12 10 17 2 17 -7 0 -9 5 -6 11 4 5 12 8 18 6 16 -5
16 -57 1 -57 -7 0 -19 -3 -27 -6 -18 -7 -30 22 -20 50 6 19 7 18 12 -8 5 -26
7 -27 20 -13z m79 9 c4 -26 -26 -42 -38 -21 -11 16 7 52 23 46 7 -2 13 -13 15
-25z m82 -2 c0 -10 -4 -22 -10 -25 -6 -4 -10 7 -10 25 0 18 4 29 10 25 6 -3
10 -15 10 -25z m50 20 c-13 -9 -13 -11 0 -19 8 -6 17 -6 20 -2 3 4 23 8 45 9
31 0 35 -2 20 -8 -11 -5 -14 -9 -7 -9 6 -1 12 -5 12 -9 0 -13 -63 -11 -79 2
-11 8 -15 8 -18 -1 -8 -22 -23 -14 -23 10 0 28 7 37 29 37 14 0 14 -2 1 -10z
m232 -2 c-7 -7 -12 -21 -12 -32 0 -25 -5 -18 -14 17 -5 23 -3 27 16 27 17 0
19 -3 10 -12z m118 -17 c0 -26 -3 -28 -40 -28 -27 0 -40 4 -40 13 0 20 -18 17
-23 -3 -3 -13 -5 -12 -6 5 -1 21 3 23 39 20 22 -1 45 3 52 10 17 17 18 16 18
-17z m307 -18 c-4 -17 -4 -17 -12 0 -4 9 -4 25 0 35 8 16 8 16 12 0 3 -10 3
-26 0 -35z m32 15 c-1 -31 -1 -31 -8 -8 -5 14 -6 28 -4 33 9 15 13 6 12 -25z
m32 -15 c-9 -15 -10 -12 -10 17 0 29 1 32 10 18 7 -12 7 -24 0 -35z m68 34
c10 17 10 17 11 -1 0 -14 3 -16 13 -7 8 6 17 8 20 4 9 -8 81 -8 94 0 16 10 34
-16 23 -33 -7 -11 -11 -11 -24 -1 -13 11 -16 11 -17 0 0 -8 -4 -5 -9 6 -6 13
-9 15 -9 5 -1 -18 -72 -24 -83 -6 -5 7 -8 6 -8 -4 0 -13 -2 -13 -9 -1 -8 12
-12 12 -25 2 -14 -12 -16 -9 -16 20 1 31 2 32 14 16 14 -18 15 -18 25 0z m454
3 c-14 -6 -23 -18 -23 -31 0 -28 -5 -22 -14 14 -6 25 -4 27 26 26 30 0 31 -1
11 -9z m321 -6 c11 -28 6 -40 -14 -40 -22 0 -22 1 -14 34 7 26 19 29 28 6z
m69 -6 c36 3 43 1 43 -15 0 -11 -7 -19 -17 -19 -10 0 -15 6 -12 16 4 13 3 13
-9 -1 -7 -8 -23 -15 -35 -15 -19 0 -23 6 -22 31 1 16 3 23 5 15 3 -11 16 -14
47 -12z m107 13 c0 -5 29 -11 65 -13 51 -2 65 0 69 12 2 8 4 1 5 -15 1 -27 -2
-31 -24 -30 -14 0 -30 7 -35 15 -8 13 -10 12 -10 -4 0 -15 -3 -16 -14 -7 -11
9 -15 9 -19 -1 -4 -10 -9 -9 -20 5 -14 16 -16 17 -31 2 -15 -15 -17 -15 -22
-1 -8 22 2 46 21 46 8 0 15 -4 15 -9z m296 0 c12 -12 56 -17 71 -8 6 4 14 3
18 -3 4 -7 13 -7 26 0 15 8 21 7 25 -4 3 -8 13 -17 21 -20 13 -6 14 -4 3 9
-18 22 4 46 23 26 10 -12 8 -13 -8 -7 -16 6 -18 5 -7 -6 10 -10 17 -10 31 -1
10 7 22 9 25 6 12 -12 56 -9 56 4 0 10 4 11 18 2 22 -14 24 -50 2 -46 -8 1
-18 7 -22 12 -5 6 -8 5 -8 -2 0 -7 -7 -13 -15 -13 -8 0 -15 6 -15 13 0 9 -2 9
-8 0 -4 -6 -26 -10 -52 -9 -25 2 -53 -1 -62 -6 -14 -7 -18 -5 -18 9 0 12 -3
14 -8 7 -8 -13 -60 -13 -79 -1 -6 4 -14 3 -18 -3 -14 -22 -35 -10 -35 20 0 30
16 39 36 21z m-2131 -31 c-5 -8 -11 -8 -17 -2 -6 6 -7 16 -3 22 5 8 11 8 17 2
6 -6 7 -16 3 -22z m598 18 c29 -1 34 -4 29 -22 -3 -12 -7 -15 -10 -8 -3 10 -7
10 -19 0 -12 -10 -18 -9 -30 7 -13 17 -15 17 -10 3 4 -10 2 -18 -3 -18 -6 0
-10 7 -10 15 0 8 -9 15 -21 15 -11 0 -17 -5 -14 -10 4 -6 12 -7 18 -4 7 4 8 3
4 -2 -4 -4 -24 -9 -43 -11 -29 -2 -34 1 -34 20 0 18 2 19 10 7 6 -9 10 -10 10
-3 0 11 64 23 82 15 4 -1 22 -3 41 -4z m831 -4 c10 -9 16 -11 16 -4 0 6 8 10
18 8 28 -5 20 -33 -10 -34 -19 -1 -28 4 -28 15 0 10 -3 12 -8 5 -4 -6 -17 -14
-29 -18 -18 -6 -23 -3 -24 11 0 10 -3 13 -6 6 -7 -18 -23 -16 -23 2 0 9 9 15
25 15 14 0 25 -5 25 -11 0 -5 5 -7 10 -4 6 4 8 11 5 16 -10 15 12 10 29 -7z
m-1191 -31 c-7 -2 -21 -2 -30 0 -10 3 -4 5 12 5 17 0 24 -2 18 -5z m450 0 c-7
-2 -21 -2 -30 0 -10 3 -4 5 12 5 17 0 24 -2 18 -5z m430 0 c-7 -2 -21 -2 -30
0 -10 3 -4 5 12 5 17 0 24 -2 18 -5z m910 0 c-7 -2 -21 -2 -30 0 -10 3 -4 5
12 5 17 0 24 -2 18 -5z m-1822 -482 c6 10 9 7 9 -11 0 -18 3 -21 9 -11 10 16
31 6 31 -15 0 -8 -10 -14 -25 -14 -16 0 -25 6 -25 15 0 21 -18 19 -23 -2 -3
-12 -5 -9 -6 8 -1 28 11 48 18 28 2 -8 6 -7 12 2z m412 -5 c3 3 15 1 26 -6 16
-8 21 -8 22 2 0 7 4 4 9 -7 5 -11 9 -14 9 -7 1 21 31 13 31 -8 0 -16 -7 -20
-35 -20 -26 0 -35 4 -36 18 -1 14 -2 14 -6 1 -2 -10 -16 -16 -38 -17 -30 -1
-35 2 -35 22 0 30 9 37 30 26 10 -5 20 -7 23 -4z m-692 -3 c-8 -3 -9 -8 -3
-12 6 -4 5 -11 -4 -19 -12 -11 -14 -9 -14 13 0 17 5 25 18 24 12 0 13 -2 3 -6z
m78 -20 c0 -25 -1 -25 -8 -8 -5 11 -7 23 -4 28 8 14 13 7 12 -20z m326 7 c16
13 35 5 35 -15 0 -9 -12 -14 -40 -13 -47 0 -61 15 -34 35 17 12 19 12 22 -2 3
-12 7 -13 17 -5z m102 8 c11 16 12 16 13 -1 0 -12 4 -16 13 -10 6 4 27 8 45
10 25 1 32 -2 32 -17 0 -20 -16 -35 -23 -23 -3 5 -30 8 -61 7 -54 0 -56 1 -55
25 0 23 2 24 12 9 10 -15 12 -15 24 0z m350 0 c11 15 12 14 13 -8 0 -21 -5
-26 -25 -26 -20 0 -25 5 -24 26 0 22 2 23 12 8 10 -15 12 -15 24 0z m197 6 c8
-3 13 -13 10 -22 -5 -15 -4 -15 9 1 19 23 37 22 37 -3 0 -17 -7 -20 -40 -20
-25 0 -40 5 -40 13 0 9 -2 9 -8 1 -4 -7 -20 -14 -37 -15 -24 -3 -30 0 -29 14
1 9 -2 17 -7 17 -5 0 -9 -6 -9 -14 0 -16 -33 -27 -50 -16 -26 16 -3 36 43 38
35 1 49 -3 56 -16 10 -15 12 -14 10 5 0 4 8 10 18 14 10 4 19 8 20 8 1 1 8 -2
17 -5z m4864 -1 c-10 -2 -26 -2 -35 0 -10 3 -2 5 17 5 19 0 27 -2 18 -5z m87
-3 c4 -6 14 -9 23 -8 11 2 18 -5 20 -19 4 -29 -23 -31 -38 -3 -6 11 -16 20
-23 20 -9 0 -9 -2 -1 -8 9 -5 8 -11 -2 -20 -12 -11 -14 -8 -14 18 0 30 21 42
35 20z m277 -10 c5 23 5 22 7 -6 1 -21 -4 -31 -14 -31 -10 0 -15 10 -14 31 1
30 1 30 8 6 l8 -25 5 25z m-6227 -10 c0 -8 -8 -16 -17 -18 -13 -2 -18 3 -18
18 0 15 5 20 18 18 9 -2 17 -10 17 -18z m138 -1 c-3 -10 -9 -16 -14 -13 -5 3
-9 -2 -9 -10 0 -9 -7 -16 -15 -16 -8 0 -15 7 -15 15 0 8 5 15 10 15 6 0 10 5
10 12 0 6 -7 4 -18 -5 -22 -20 -52 -22 -52 -4 0 21 6 23 58 24 43 0 49 -2 45
-18z m47 1 c0 -11 -7 -20 -15 -20 -8 0 -15 9 -15 20 0 11 7 20 15 20 8 0 15
-9 15 -20z m5894 6 c5 13 10 14 18 6 7 -7 17 -8 29 -1 13 7 20 5 27 -7 8 -15
10 -15 15 1 9 21 27 10 27 -15 0 -15 -6 -19 -25 -18 -15 2 -25 9 -25 18 0 12
-2 12 -9 2 -4 -7 -29 -15 -54 -17 -37 -4 -47 -1 -47 10 0 21 -18 19 -23 -2 -4
-14 -5 -13 -6 4 -1 26 37 37 55 16 10 -11 13 -11 18 3z m-229 -6 c-27 -12 -35
-12 -35 0 0 6 12 10 28 9 24 0 25 -1 7 -9z m422 -10 c-1 -11 -7 -20 -14 -20
-15 0 -15 2 -7 24 9 23 23 20 21 -4z m77 6 c-6 -15 -42 -28 -55 -20 -17 10 5
34 32 34 20 0 27 -4 23 -14z m-484 -16 c0 -5 -12 -10 -27 -9 -25 0 -26 1 -8 9
27 12 35 12 35 0z m-4173 -11 c11 -11 -8 -62 -27 -74 -13 -8 -51 51 -44 69 7
18 54 22 71 5z m2909 -2 c-29 -21 -16 -52 22 -53 18 0 38 -6 45 -14 10 -10 9
-11 -3 -4 -8 4 -25 7 -38 5 -27 -3 -52 15 -52 38 0 19 18 41 34 41 5 0 2 -6
-8 -13z m49 3 c3 -6 -1 -7 -9 -4 -18 7 -21 14 -7 14 6 0 13 -4 16 -10z m-1828
-57 c-3 -10 -5 -2 -5 17 0 19 2 27 5 18 2 -10 2 -26 0 -35z m560 0 c-3 -10 -5
-2 -5 17 0 19 2 27 5 18 2 -10 2 -26 0 -35z m-650 5 c-3 -8 -6 -5 -6 6 -1 11
2 17 5 13 3 -3 4 -12 1 -19z m590 -10 c-3 -7 -5 -2 -5 12 0 14 2 19 5 13 2 -7
2 -19 0 -25z"/>
<path d="M5690 2735 c0 -17 9 -19 28 -6 11 7 10 10 -3 15 -23 9 -25 8 -25 -9z"/>
<path d="M5750 2735 c0 -8 5 -15 10 -15 6 0 10 7 10 15 0 8 -4 15 -10 15 -5 0
-10 -7 -10 -15z"/>
<path d="M5920 2735 c0 -8 5 -15 10 -15 6 0 10 7 10 15 0 8 -4 15 -10 15 -5 0
-10 -7 -10 -15z"/>
<path d="M6166 2741 c-4 -5 -2 -12 3 -15 5 -4 12 -2 15 3 4 5 2 12 -3 15 -5 4
-12 2 -15 -3z"/>
<path d="M2764 2636 c-11 -28 4 -48 33 -44 22 2 28 8 28 28 0 20 -6 26 -28 28
-18 2 -29 -2 -33 -12z"/>
<path d="M2759 2554 c-9 -11 -10 -20 -2 -32 14 -24 54 -27 70 -7 28 40 -36 77
-68 39z"/>
<path d="M2628 2590 l-28 -40 33 0 c31 0 32 2 32 40 1 22 -1 40 -5 40 -3 -1
-17 -19 -32 -40z"/>
<path d="M3040 2560 c0 -22 7 -25 29 -11 16 10 6 31 -15 31 -8 0 -14 -9 -14
-20z"/>
<path d="M3040 2515 c0 -8 9 -15 20 -15 11 0 20 7 20 15 0 8 -9 15 -20 15 -11
0 -20 -7 -20 -15z"/>
<path d="M5666 2431 c-4 -5 -2 -12 3 -15 5 -4 12 -2 15 3 4 5 2 12 -3 15 -5 4
-12 2 -15 -3z"/>
<path d="M5790 2431 c0 -6 5 -13 10 -16 6 -3 10 1 10 9 0 9 -4 16 -10 16 -5 0
-10 -4 -10 -9z"/>
<path d="M5910 2431 c0 -6 5 -13 10 -16 6 -3 10 1 10 9 0 9 -4 16 -10 16 -5 0
-10 -4 -10 -9z"/>
<path d="M6150 2424 c0 -8 5 -12 10 -9 6 3 10 10 10 16 0 5 -4 9 -10 9 -5 0
-10 -7 -10 -16z"/>
<path d="M6216 2431 c-4 -5 -2 -12 3 -15 5 -4 12 -2 15 3 4 5 2 12 -3 15 -5 4
-12 2 -15 -3z"/>
<path d="M6080 2431 c0 -6 5 -13 10 -16 6 -3 10 1 10 9 0 9 -4 16 -10 16 -5 0
-10 -4 -10 -9z"/>
<path d="M5170 2380 c0 -5 5 -10 10 -10 6 0 10 5 10 10 0 6 -4 10 -10 10 -5 0
-10 -4 -10 -10z"/>
<path d="M5090 2369 c0 -5 5 -7 10 -4 6 3 10 8 10 11 0 2 -4 4 -10 4 -5 0 -10
-5 -10 -11z"/>
<path d="M4525 2340 c3 -5 8 -10 11 -10 2 0 4 5 4 10 0 6 -5 10 -11 10 -5 0
-7 -4 -4 -10z"/>
<path d="M4065 2320 c3 -5 8 -10 11 -10 2 0 4 5 4 10 0 6 -5 10 -11 10 -5 0
-7 -4 -4 -10z"/>
<path d="M4146 2313 c-6 -14 -5 -15 5 -6 7 7 10 15 7 18 -3 3 -9 -2 -12 -12z"/>
<path d="M660 2315 c0 -8 5 -15 10 -15 6 0 10 7 10 15 0 8 -4 15 -10 15 -5 0
-10 -7 -10 -15z"/>
<path d="M725 2321 c-6 -11 9 -23 19 -14 9 9 7 23 -3 23 -6 0 -12 -4 -16 -9z"/>
<path d="M792 2319 c2 -6 8 -10 13 -10 5 0 11 4 13 10 2 6 -4 11 -13 11 -9 0
-15 -5 -13 -11z"/>
<path d="M1460 2321 c0 -6 5 -13 10 -16 6 -3 10 1 10 9 0 9 -4 16 -10 16 -5 0
-10 -4 -10 -9z"/>
<path d="M1500 2316 c0 -2 7 -7 16 -10 8 -3 12 -2 9 4 -6 10 -25 14 -25 6z"/>
<path d="M1605 2321 c-6 -11 9 -23 19 -14 9 9 7 23 -3 23 -6 0 -12 -4 -16 -9z"/>
<path d="M1695 2321 c-6 -11 9 -23 19 -14 9 9 7 23 -3 23 -6 0 -12 -4 -16 -9z"/>
<path d="M1760 2314 c0 -8 5 -12 10 -9 6 3 10 10 10 16 0 5 -4 9 -10 9 -5 0
-10 -7 -10 -16z"/>
<path d="M1950 2320 c0 -5 5 -10 10 -10 6 0 10 5 10 10 0 6 -4 10 -10 10 -5 0
-10 -4 -10 -10z"/>
<path d="M2020 2320 c0 -5 5 -10 10 -10 6 0 10 5 10 10 0 6 -4 10 -10 10 -5 0
-10 -4 -10 -10z"/>
<path d="M2082 2321 c2 -7 7 -12 11 -12 12 1 9 15 -3 20 -7 2 -11 -2 -8 -8z"/>
<path d="M2900 2320 c0 -5 5 -10 10 -10 6 0 10 5 10 10 0 6 -4 10 -10 10 -5 0
-10 -4 -10 -10z"/>
<path d="M2960 2320 c0 -5 5 -10 10 -10 6 0 10 5 10 10 0 6 -4 10 -10 10 -5 0
-10 -4 -10 -10z"/>
<path d="M3090 2320 c0 -5 5 -10 10 -10 6 0 10 5 10 10 0 6 -4 10 -10 10 -5 0
-10 -4 -10 -10z"/>
<path d="M3160 2320 c0 -5 5 -10 10 -10 6 0 10 5 10 10 0 6 -4 10 -10 10 -5 0
-10 -4 -10 -10z"/>
<path d="M3250 2320 c0 -5 5 -10 10 -10 6 0 10 5 10 10 0 6 -4 10 -10 10 -5 0
-10 -4 -10 -10z"/>
<path d="M3318 2306 c-4 -17 -1 -23 9 -19 14 6 18 43 4 43 -5 0 -11 -11 -13
-24z"/>
<path d="M3385 2320 c-3 -5 -1 -10 4 -10 6 0 11 5 11 10 0 6 -2 10 -4 10 -3 0
-8 -4 -11 -10z"/>
<path d="M3451 2314 c0 -11 3 -14 6 -6 3 7 2 16 -1 19 -3 4 -6 -2 -5 -13z"/>
<path d="M3491 2314 c0 -11 3 -14 6 -6 3 7 2 16 -1 19 -3 4 -6 -2 -5 -13z"/>
<path d="M3520 2320 c0 -5 5 -10 10 -10 6 0 10 5 10 10 0 6 -4 10 -10 10 -5 0
-10 -4 -10 -10z"/>
<path d="M3590 2315 c0 -8 5 -15 10 -15 6 0 10 7 10 15 0 8 -4 15 -10 15 -5 0
-10 -7 -10 -15z"/>
<path d="M3652 2319 c2 -6 8 -10 13 -10 5 0 11 4 13 10 2 6 -4 11 -13 11 -9 0
-15 -5 -13 -11z"/>
<path d="M3360 2288 c0 -9 11 -14 30 -14 17 0 30 4 30 9 0 5 -7 6 -16 3 -9 -4
-23 -1 -30 5 -11 9 -14 8 -14 -3z"/>
<path d="M3281 2274 c0 -11 3 -14 6 -6 3 7 2 16 -1 19 -3 4 -6 -2 -5 -13z"/>
<path d="M2450 2170 c0 -5 5 -10 11 -10 5 0 7 5 4 10 -3 6 -8 10 -11 10 -2 0
-4 -4 -4 -10z"/>
<path d="M2381 2160 c-9 -5 -5 -9 10 -13 28 -7 31 -6 14 10 -6 6 -18 8 -24 3z"/>
<path d="M2260 2150 c0 -5 5 -10 10 -10 6 0 10 5 10 10 0 6 -4 10 -10 10 -5 0
-10 -4 -10 -10z"/>
<path d="M2320 2149 c0 -3 9 -9 19 -12 13 -3 18 0 15 7 -5 13 -34 18 -34 5z"/>
<path d="M2530 2319 c0 -5 9 -9 20 -9 11 0 20 4 20 8 0 4 -9 8 -20 9 -11 1
-20 -2 -20 -8z"/>
<path d="M2650 2320 c0 -5 5 -10 10 -10 6 0 10 5 10 10 0 6 -4 10 -10 10 -5 0
-10 -4 -10 -10z"/>
<path d="M2740 2320 c0 -5 5 -10 10 -10 6 0 10 5 10 10 0 6 -4 10 -10 10 -5 0
-10 -4 -10 -10z"/>
<path d="M340 2340 c0 -5 5 -10 10 -10 6 0 10 5 10 10 0 6 -4 10 -10 10 -5 0
-10 -4 -10 -10z"/>
<path d="M402 2319 c2 -6 8 -10 13 -10 5 0 11 4 13 10 2 6 -4 11 -13 11 -9 0
-15 -5 -13 -11z"/>
<path d="M1112 2319 c2 -6 8 -10 13 -10 5 0 11 4 13 10 2 6 -4 11 -13 11 -9 0
-15 -5 -13 -11z"/>
<path d="M1673 2085 c-11 -8 -23 -11 -27 -8 -3 3 -6 2 -6 -4 0 -18 12 -22 26
-8 8 7 19 15 26 18 7 2 10 7 7 10 -3 4 -14 0 -26 -8z"/>
<path d="M1480 2020 c0 -5 5 -10 11 -10 5 0 7 5 4 10 -3 6 -8 10 -11 10 -2 0
-4 -4 -4 -10z"/>
<path d="M1283 1935 c0 -8 4 -12 9 -9 5 3 6 10 3 15 -9 13 -12 11 -12 -6z"/>
<path d="M1185 1899 c-4 -6 -5 -12 -2 -15 2 -3 7 2 10 11 7 17 1 20 -8 4z"/>
<path d="M1245 1900 c3 -5 10 -10 16 -10 5 0 9 5 9 10 0 6 -7 10 -16 10 -8 0
-12 -4 -9 -10z"/>
<path d="M5640 2089 c0 -5 5 -7 10 -4 6 3 10 8 10 11 0 2 -4 4 -10 4 -5 0 -10
-5 -10 -11z"/>
<path d="M5795 2079 c-10 -15 3 -25 16 -12 7 7 7 13 1 17 -6 3 -14 1 -17 -5z"/>
<path d="M6050 2070 c0 -5 5 -10 10 -10 6 0 10 5 10 10 0 6 -4 10 -10 10 -5 0
-10 -4 -10 -10z"/>
<path d="M733 1964 c-7 -18 11 -39 26 -30 17 11 13 46 -4 46 -9 0 -18 -7 -22
-16z"/>
<path d="M883 1964 c-7 -18 11 -39 26 -30 17 11 13 46 -4 46 -9 0 -18 -7 -22
-16z"/>
<path d="M740 1750 c0 -5 5 -10 10 -10 6 0 10 5 10 10 0 6 -4 10 -10 10 -5 0
-10 -4 -10 -10z"/>
<path d="M1015 1751 c-3 -5 -1 -12 5 -16 5 -3 10 1 10 9 0 18 -6 21 -15 7z"/>
<path d="M1080 1745 c0 -8 5 -15 10 -15 6 0 10 7 10 15 0 8 -4 15 -10 15 -5 0
-10 -7 -10 -15z"/>
<path d="M1512 1749 c2 -6 8 -10 13 -10 5 0 11 4 13 10 2 6 -4 11 -13 11 -9 0
-15 -5 -13 -11z"/>
<path d="M1580 1751 c0 -6 5 -13 10 -16 6 -3 10 1 10 9 0 9 -4 16 -10 16 -5 0
-10 -4 -10 -9z"/>
<path d="M1645 1751 c-6 -11 9 -23 19 -14 9 9 7 23 -3 23 -6 0 -12 -4 -16 -9z"/>
<path d="M590 1750 c0 -5 5 -10 10 -10 6 0 10 5 10 10 0 6 -4 10 -10 10 -5 0
-10 -4 -10 -10z"/>
<path d="M650 1750 c0 -5 5 -10 10 -10 6 0 10 5 10 10 0 6 -4 10 -10 10 -5 0
-10 -4 -10 -10z"/>
<path d="M1142 1749 c2 -6 8 -10 13 -10 5 0 11 4 13 10 2 6 -4 11 -13 11 -9 0
-15 -5 -13 -11z"/>
<path d="M5875 1600 c-3 -5 -1 -10 4 -10 6 0 11 5 11 10 0 6 -2 10 -4 10 -3 0
-8 -4 -11 -10z"/>
<path d="M5510 1475 c0 -9 5 -15 11 -13 6 2 11 8 11 13 0 5 -5 11 -11 13 -6 2
-11 -4 -11 -13z"/>
<path d="M6355 1470 c3 -5 8 -10 11 -10 2 0 4 5 4 10 0 6 -5 10 -11 10 -5 0
-7 -4 -4 -10z"/>
<path d="M6540 1470 c0 -5 5 -10 10 -10 6 0 10 5 10 10 0 6 -4 10 -10 10 -5 0
-10 -4 -10 -10z"/>
<path d="M5805 1350 c-3 -5 -1 -10 4 -10 6 0 11 5 11 10 0 6 -2 10 -4 10 -3 0
-8 -4 -11 -10z"/>
<path d="M5840 1350 c0 -5 5 -10 10 -10 6 0 10 5 10 10 0 6 -4 10 -10 10 -5 0
-10 -4 -10 -10z"/>
<path d="M5680 1350 c0 -5 5 -10 10 -10 6 0 10 5 10 10 0 6 -4 10 -10 10 -5 0
-10 -4 -10 -10z"/>
<path d="M6330 1350 c0 -5 5 -10 10 -10 6 0 10 5 10 10 0 6 -4 10 -10 10 -5 0
-10 -4 -10 -10z"/>
<path d="M5600 1250 c0 -5 5 -10 10 -10 6 0 10 5 10 10 0 6 -4 10 -10 10 -5 0
-10 -4 -10 -10z"/>
<path d="M5640 1250 c0 -5 5 -10 10 -10 6 0 10 5 10 10 0 6 -4 10 -10 10 -5 0
-10 -4 -10 -10z"/>
<path d="M5810 1250 c0 -5 5 -10 10 -10 6 0 10 5 10 10 0 6 -4 10 -10 10 -5 0
-10 -4 -10 -10z"/>
<path d="M1290 1225 c0 -13 82 -126 87 -121 3 3 -12 31 -33 61 -37 54 -54 73
-54 60z"/>
<path d="M5590 970 c0 -16 2 -30 4 -30 2 0 6 14 8 30 3 17 1 30 -4 30 -4 0 -8
-13 -8 -30z"/>
<path d="M5830 972 c0 -26 3 -29 36 -30 31 -1 35 1 32 21 -4 27 -35 35 -41 10
-4 -14 -5 -13 -6 5 -2 32 -21 27 -21 -6z"/>
<path d="M6120 971 c0 -28 2 -29 45 -29 41 0 45 2 45 24 0 16 -6 24 -17 24
-14 0 -15 -2 -5 -9 11 -7 11 -9 -2 -14 -8 -3 -19 0 -23 7 -5 7 -16 15 -25 19
-15 5 -18 1 -18 -22z m26 -18 c-10 -10 -19 5 -10 18 6 11 8 11 12 0 2 -7 1
-15 -2 -18z"/>
<path d="M6380 976 c0 -14 5 -28 10 -31 6 -4 10 7 10 24 0 17 -4 31 -10 31 -5
0 -10 -11 -10 -24z"/>
<path d="M6490 976 c0 -14 5 -28 10 -31 6 -3 10 5 10 19 0 14 -4 28 -10 31 -6
3 -10 -5 -10 -19z"/>
<path d="M5621 963 l1 -28 8 25 7 25 12 -25 11 -25 -3 25 c-1 14 -9 26 -19 28
-14 3 -18 -3 -17 -25z"/>
<path d="M5672 965 c0 -16 2 -22 5 -12 2 9 2 23 0 30 -3 6 -5 -1 -5 -18z"/>
<path d="M5694 975 c-3 -8 -3 -19 1 -25 8 -13 35 -13 35 0 0 5 -7 7 -16 3 -12
-4 -15 -2 -12 8 3 8 11 13 17 11 7 -1 10 2 6 8 -9 15 -25 12 -31 -5z"/>
<path d="M5742 965 c0 -16 2 -22 5 -12 2 9 2 23 0 30 -3 6 -5 -1 -5 -18z"/>
<path d="M5778 981 c11 -7 11 -9 -2 -14 -23 -9 -20 -27 4 -27 15 0 20 7 20 25
0 17 -5 25 -17 25 -14 0 -15 -2 -5 -9z"/>
<path d="M5931 953 c0 -21 3 -32 6 -25 2 6 11 12 20 12 21 0 13 44 -9 48 -15
3 -18 -4 -17 -35z m25 0 c-10 -10 -19 5 -10 18 6 11 8 11 12 0 2 -7 1 -15 -2
-18z"/>
<path d="M5986 983 c-10 -11 -7 -45 4 -38 6 4 8 10 5 15 -3 5 0 12 6 15 6 4
13 -2 16 -14 8 -31 43 -28 43 5 0 14 -4 23 -10 19 -6 -4 -8 -10 -5 -15 3 -5 1
-11 -5 -15 -5 -3 -10 2 -10 12 0 18 -31 29 -44 16z"/>
<path d="M6077 984 c-16 -17 -7 -44 16 -43 21 0 21 1 2 9 -18 8 -18 9 -2 9 10
1 17 6 15 13 -5 14 -22 21 -31 12z"/>
<path d="M6245 980 c-3 -5 -3 -21 1 -35 9 -37 38 -29 42 13 3 26 0 32 -17 32
-11 0 -22 -4 -26 -10z m30 -9 c3 -5 1 -12 -5 -16 -5 -3 -10 1 -10 9 0 18 6 21
15 7z"/>
<path d="M6301 963 c0 -25 1 -26 9 -8 12 27 12 35 0 35 -5 0 -10 -12 -9 -27z"/>
<path d="M6348 981 c11 -7 11 -9 -2 -14 -23 -9 -20 -27 4 -27 15 0 20 7 20 25
0 17 -5 25 -17 25 -14 0 -15 -2 -5 -9z"/>
<path d="M6415 978 c-9 -22 1 -38 26 -38 14 0 19 7 19 26 0 27 -19 24 -21 -4
-1 -10 -4 -7 -9 8 -6 21 -8 22 -15 8z"/>
<path d="M6472 965 c0 -16 2 -22 5 -12 2 9 2 23 0 30 -3 6 -5 -1 -5 -18z"/>
<path d="M6538 981 c11 -7 11 -9 -2 -14 -23 -9 -20 -27 4 -27 15 0 20 7 20 25
0 17 -5 25 -17 25 -14 0 -15 -2 -5 -9z"/>
<path d="M330 884 c0 -8 5 -12 10 -9 6 3 10 10 10 16 0 5 -4 9 -10 9 -5 0 -10
-7 -10 -16z"/>
<path d="M2500 890 c0 -5 5 -10 10 -10 6 0 10 5 10 10 0 6 -4 10 -10 10 -5 0
-10 -4 -10 -10z"/>
<path d="M970 355 c0 -8 5 -15 10 -15 6 0 10 7 10 15 0 8 -4 15 -10 15 -5 0
-10 -7 -10 -15z"/>
<path d="M860 350 c0 -5 5 -10 10 -10 6 0 10 5 10 10 0 6 -4 10 -10 10 -5 0
-10 -4 -10 -10z"/>
<path d="M350 350 c0 -5 5 -10 11 -10 5 0 7 5 4 10 -3 6 -8 10 -11 10 -2 0 -4
-4 -4 -10z"/>
<path d="M420 350 c0 -5 5 -10 10 -10 6 0 10 5 10 10 0 6 -4 10 -10 10 -5 0
-10 -4 -10 -10z"/>
</g>
</svg>
