<?xml version="1.0" standalone="no"?>
<!DOCTYPE svg PUBLIC "-//W3C//DTD SVG 20010904//EN"
 "http://www.w3.org/TR/2001/REC-SVG-20010904/DTD/svg10.dtd">
<svg version="1.0" xmlns="http://www.w3.org/2000/svg"
 width="220.000000pt" height="220.000000pt" viewBox="0 0 220.000000 220.000000"
 preserveAspectRatio="xMidYMid meet">
<metadata>
Created by potrace 1.16, written by Peter Selinger 2001-2019
</metadata>
<g transform="translate(0.000000,220.000000) scale(0.100000,-0.100000)"
fill="#000000" stroke="none">
<path d="M835 1949 c-100 -9 -281 -40 -342 -60 l-33 -11 0 -516 c1 -520 1
-525 35 -606 7 -17 4 -18 -36 -11 -24 3 -52 9 -61 11 -12 4 -18 0 -18 -10 0
-8 -3 -17 -7 -19 -5 -3 -55 2 -112 9 -58 8 -106 13 -107 11 -1 -1 22 -36 52
-77 l54 -74 -55 -56 c-30 -31 -55 -58 -55 -62 0 -3 43 -11 94 -18 l95 -12 3
-31 c3 -30 6 -32 63 -44 80 -16 95 -16 95 3 0 13 7 15 28 11 15 -3 81 -13 147
-23 118 -16 122 -18 235 -84 180 -106 168 -101 215 -78 22 11 87 48 144 81
102 59 107 61 245 84 169 27 156 26 156 8 0 -18 16 -18 95 -2 57 12 60 14 63
44 l3 31 95 12 c51 7 94 15 94 18 0 4 -25 32 -55 62 l-55 56 55 74 c30 40 53
75 52 77 -4 3 -125 -11 -188 -22 -20 -3 -28 1 -32 14 -4 16 -10 18 -48 10 -81
-15 -80 -16 -56 44 21 51 22 66 25 568 l3 516 -58 16 c-211 58 -539 80 -828
56z m275 -196 c0 -7 18 -13 43 -15 l42 -3 -33 -20 c-34 -21 -37 -35 -16 -90 8
-19 7 -20 -16 -2 -41 29 -48 30 -76 8 -34 -26 -37 -23 -22 19 11 32 10 35 -23
62 l-33 28 38 0 c35 0 39 3 54 42 l16 41 13 -29 c7 -16 12 -34 13 -41z m-149
-126 l10 -42 115 0 c78 0 114 4 114 11 0 6 7 28 16 49 23 55 38 31 18 -29 -14
-41 -14 -50 -3 -57 22 -14 26 -11 49 27 30 48 49 30 20 -20 -12 -20 -18 -36
-13 -36 4 0 27 -19 51 -41 41 -40 43 -41 62 -24 28 26 46 8 20 -20 -21 -22
-21 -24 -5 -49 l17 -25 39 19 c46 24 49 24 49 5 0 -8 -3 -15 -7 -15 -5 0 -22
-9 -40 -20 -30 -18 -32 -21 -21 -50 8 -26 15 -31 32 -26 64 18 66 18 66 2 0
-9 -12 -18 -27 -22 -16 -3 -34 -7 -40 -10 -16 -4 -17 -45 -2 -42 6 2 14 -3 16
-9 3 -7 -2 -13 -11 -13 -9 0 -16 -7 -16 -15 0 -12 17 -15 90 -15 l90 0 0 -49
0 -49 -92 29 c-68 22 -94 26 -99 17 -12 -19 -5 -24 96 -59 l95 -33 0 -78 c0
-43 -4 -78 -9 -78 -5 0 -58 27 -117 60 -60 33 -114 58 -122 55 -21 -8 -8 -19
108 -91 60 -38 110 -74 110 -81 0 -7 -3 -13 -7 -13 -5 0 -60 34 -123 75 l-114
75 -33 -33 -33 -32 25 -37 c14 -20 25 -42 25 -47 0 -20 -15 -11 -33 17 -35 57
-30 56 -84 28 -28 -15 -70 -30 -94 -34 l-44 -7 -3 -68 -3 -67 103 0 c128 0
284 14 430 40 103 18 130 19 116 4 -10 -10 -259 -52 -372 -63 -140 -14 -422
-14 -562 0 -123 12 -382 54 -391 63 -15 15 11 14 118 -4 144 -24 317 -40 437
-40 l93 0 -3 67 c-2 54 -6 68 -20 71 -16 3 -18 -2 -32 -103 -2 -11 -11 -22
-21 -23 -15 -3 -17 1 -11 32 20 114 20 106 -3 106 -11 0 -21 -5 -21 -10 0 -6
-7 -27 -15 -47 -11 -25 -19 -33 -26 -26 -7 7 -5 23 7 52 9 23 15 43 13 44 -55
38 -55 38 -84 -3 -15 -22 -31 -40 -35 -40 -19 0 -17 16 9 54 l28 41 -33 31
-33 30 -115 -77 c-63 -43 -117 -75 -120 -72 -16 16 2 33 104 98 60 39 110 76
110 83 0 20 -12 15 -128 -52 -61 -35 -113 -62 -116 -59 -3 4 -6 41 -6 82 l0
76 92 36 c59 22 94 41 96 51 3 17 -17 13 -165 -36 -22 -7 -23 -5 -23 43 l0 51
90 0 c73 0 90 3 90 15 0 8 -7 15 -15 15 -8 0 -15 7 -15 15 0 9 6 12 16 8 12
-4 15 0 12 18 -2 18 -12 25 -40 32 -23 6 -38 15 -38 24 0 15 14 14 71 -3 12
-3 20 5 28 26 10 29 8 32 -22 50 -18 11 -35 20 -39 20 -5 0 -8 7 -8 15 0 19 3
19 50 -5 l39 -20 17 25 c15 24 15 27 0 44 -16 18 -22 41 -9 41 3 0 15 -7 25
-16 17 -16 21 -14 67 29 l49 46 -20 32 c-13 21 -16 35 -9 42 7 7 17 -2 31 -27
23 -38 27 -41 49 -27 11 7 11 16 -3 56 -15 47 -14 71 5 60 5 -4 14 -25 20 -48z
m-409 -966 c237 -42 352 -54 533 -55 188 0 273 8 518 51 81 14 150 23 154 20
9 -10 32 -136 33 -179 0 -27 -5 -40 -19 -47 -42 -23 -390 -75 -581 -87 -165
-10 -527 26 -759 77 l-54 11 6 67 c9 103 27 173 42 167 8 -3 65 -14 127 -25z"/>
<path d="M1050 1554 c-12 -4 -15 -14 -12 -41 5 -43 -13 -38 -21 6 -6 29 -8 30
-37 20 -38 -14 -44 -23 -30 -50 17 -30 2 -38 -21 -11 -14 18 -23 21 -35 14
-11 -6 -13 -11 -5 -16 20 -13 12 -28 -13 -22 -16 4 -29 0 -41 -14 -18 -20 -18
-21 3 -43 20 -21 22 -34 22 -143 0 -113 2 -122 29 -169 36 -62 100 -126 156
-156 l42 -23 48 29 c66 38 125 101 158 168 24 50 27 66 27 164 0 83 4 114 16
131 15 21 15 25 -1 42 -12 14 -25 18 -41 14 -25 -6 -33 9 -13 22 8 5 6 10 -5
16 -12 7 -21 4 -35 -14 -25 -30 -38 -18 -16 15 15 24 15 25 -22 40 l-38 15 -9
-29 c-12 -38 -30 -38 -24 0 3 23 0 31 -16 35 -23 6 -42 6 -66 0z m40 -349 c0
-154 -4 -256 -10 -260 -12 -8 -104 84 -152 153 -59 83 -49 162 12 97 14 -15
35 -25 52 -25 22 0 31 -7 42 -32 l14 -33 1 53 c1 59 2 59 -101 87 l-58 16 0
75 c0 51 4 76 13 78 6 2 48 15 92 28 44 14 83 23 88 21 4 -2 7 -118 7 -258z
m143 218 c4 -2 -6 -22 -23 -43 -42 -53 -37 -59 14 -16 24 20 47 36 50 36 3 0
6 -31 6 -68 l0 -68 -57 -18 c-32 -10 -64 -21 -70 -23 -18 -7 -18 188 -1 205
11 11 58 8 81 -5z m47 -237 c0 -36 -39 -100 -107 -175 l-33 -36 3 95 2 95 31
3 c17 2 42 14 55 28 32 34 49 31 49 -10z"/>
</g>
</svg>
